<svg width="720" height="960" viewBox="0 0 720 960" fill="none" xmlns="http://www.w3.org/2000/svg">
  <rect width="720" height="960" rx="48" fill="#FFFDFB"/>
  <rect x="190" y="36" width="340" height="888" rx="58" fill="#FFFDFB" stroke="#E8DDD7" stroke-width="10"/>
  <rect x="224" y="76" width="272" height="808" rx="42" fill="#FFFFFF"/>
  <rect x="324" y="54" width="72" height="12" rx="6" fill="#EEE4DE"/>
  <rect x="246" y="114" width="92" height="16" rx="8" fill="#E7CFC4"/>
  <rect x="246" y="146" width="180" height="16" rx="8" fill="#F6EFEC"/>
  <rect x="246" y="206" width="228" height="260" rx="24" fill="#FFF7F7" stroke="#E8DDD7"/>
  <rect x="246" y="494" width="228" height="80" rx="20" fill="#FFFFFF" stroke="#E8DDD7"/>
  <rect x="246" y="590" width="228" height="80" rx="20" fill="#FFFFFF" stroke="#E8DDD7"/>
  <rect x="246" y="736" width="228" height="56" rx="28" fill="#FFCCCC"/>
  <text x="360" y="156" text-anchor="middle" fill="#3F3A37" font-family="Noto Sans JP, sans-serif" font-size="22" font-weight="500">カレンダー</text>
  <text x="360" y="282" text-anchor="middle" fill="#3F3A37" font-family="Noto Sans JP, sans-serif" font-size="26" font-weight="500">7月 2026</text>
  <text x="360" y="322" text-anchor="middle" fill="#5B5450" font-family="Noto Sans JP, sans-serif" font-size="20" font-weight="500">来店予定 / 誕生日</text>
  <text x="360" y="362" text-anchor="middle" fill="#5B5450" font-family="Noto Sans JP, sans-serif" font-size="20" font-weight="500">記録をひと目で確認</text>
  <text x="360" y="526" text-anchor="middle" fill="#5B5450" font-family="Noto Sans JP, sans-serif" font-size="20" font-weight="500">次回来店 7/16 10:30</text>
  <text x="360" y="622" text-anchor="middle" fill="#5B5450" font-family="Noto Sans JP, sans-serif" font-size="20" font-weight="500">お誕生日 8/21</text>
  <text x="360" y="772" text-anchor="middle" fill="#FFFFFF" font-family="Noto Sans JP, sans-serif" font-size="20" font-weight="700">予定を登録</text>
</svg>
