<svg width="1600" height="1200" viewBox="0 0 1600 1200" fill="none" xmlns="http://www.w3.org/2000/svg">
  <rect width="1600" height="1200" fill="#FFFDF9"/>
  <circle cx="1260" cy="220" r="260" fill="#FFCCCC" fill-opacity="0.18"/>
  <circle cx="280" cy="340" r="340" fill="#F6EFEC" fill-opacity="0.92"/>
  <circle cx="1220" cy="860" r="300" fill="#E7CFC4" fill-opacity="0.22"/>
  <circle cx="760" cy="660" r="420" fill="#FFFFFF" fill-opacity="0.85"/>
  <path d="M0 220C210 120 350 160 540 230C720 296 900 330 1120 240C1320 160 1450 170 1600 220V0H0V220Z" fill="#FFFFFF" fill-opacity="0.72"/>
  <path d="M0 1040C240 960 420 940 610 990C830 1048 1010 1120 1260 1080C1410 1056 1510 1020 1600 980V1200H0V1040Z" fill="#FFFFFF" fill-opacity="0.58"/>
</svg>

