<svg width="1200" height="820" viewBox="0 0 1200 820" fill="none" xmlns="http://www.w3.org/2000/svg">
  <rect width="1200" height="820" rx="36" fill="#FBF8F6"/>
  <rect x="92" y="92" width="1016" height="636" rx="30" fill="#FFFDF9"/>
  <circle cx="346" cy="246" r="158" fill="#E9C6CB" fill-opacity="0.35"/>
  <circle cx="878" cy="246" r="190" fill="#F4D3D6" fill-opacity="0.36"/>
  <circle cx="600" cy="536" r="220" fill="#E9C6CB" fill-opacity="0.18"/>
  <path d="M242 334C350 250 460 242 560 296C660 350 744 372 880 318C960 286 1018 286 1088 300V644H242V334Z" fill="#FBF8F6"/>
  <rect x="268" y="160" width="284" height="64" rx="18" fill="#FDF9F7"/>
  <rect x="268" y="246" width="380" height="20" rx="10" fill="#E8DDD7"/>
  <rect x="268" y="282" width="272" height="20" rx="10" fill="#E8DDD7"/>
  <rect x="704" y="160" width="250" height="64" rx="18" fill="#FDF9F7"/>
  <rect x="704" y="246" width="300" height="20" rx="10" fill="#E8DDD7"/>
  <rect x="704" y="282" width="232" height="20" rx="10" fill="#E8DDD7"/>
  <text x="600" y="468" text-anchor="middle" fill="#2F2A28" font-family="birra-pils, -apple-system, BlinkMacSystemFont, sans-serif" font-size="34" font-weight="500" letter-spacing="0.12em">N E L K A R</text>
</svg>

