<svg width="920" height="1040" viewBox="0 0 920 1040" fill="none" xmlns="http://www.w3.org/2000/svg">
  <rect width="920" height="1040" rx="48" fill="url(#bg)"/>
  <rect x="240" y="88" width="440" height="864" rx="54" fill="#FFFDFB" stroke="#E8DDD7" stroke-width="10"/>
  <rect x="281" y="128" width="358" height="784" rx="38" fill="#FFFFFF"/>
  <rect x="384" y="108" width="152" height="14" rx="7" fill="#EEE4DE"/>
  <rect x="318" y="182" width="148" height="18" rx="9" fill="#E7CFC4" fill-opacity="0.75"/>
  <rect x="318" y="216" width="242" height="18" rx="9" fill="#F6EFEC"/>
  <rect x="318" y="248" width="192" height="18" rx="9" fill="#F6EFEC"/>
  <rect x="318" y="298" width="286" height="168" rx="28" fill="#FFF7F7" stroke="#E8DDD7"/>
  <rect x="318" y="492" width="286" height="76" rx="22" fill="#FFFFFF" stroke="#E8DDD7"/>
  <rect x="318" y="586" width="286" height="76" rx="22" fill="#FFFFFF" stroke="#E8DDD7"/>
  <rect x="318" y="680" width="286" height="76" rx="22" fill="#FFFFFF" stroke="#E8DDD7"/>
  <rect x="318" y="788" width="286" height="64" rx="32" fill="#FFCCCC"/>
  <text x="460" y="214" text-anchor="middle" fill="#3F3A37" font-family="Noto Sans JP, sans-serif" font-size="22" font-weight="500">Customer Profile</text>
  <text x="460" y="372" text-anchor="middle" fill="#3F3A37" font-family="Noto Sans JP, sans-serif" font-size="28" font-weight="500">山田 美咲さま</text>
  <text x="460" y="526" text-anchor="middle" fill="#5B5450" font-family="Noto Sans JP, sans-serif" font-size="22" font-weight="500">シアーピンク / ¥7,500</text>
  <text x="460" y="620" text-anchor="middle" fill="#5B5450" font-family="Noto Sans JP, sans-serif" font-size="22" font-weight="500">次回来店 7/16 10:30</text>
  <text x="460" y="714" text-anchor="middle" fill="#5B5450" font-family="Noto Sans JP, sans-serif" font-size="22" font-weight="500">メモ・写真・履歴をまとめて保存</text>
  <text x="460" y="827" text-anchor="middle" fill="#FFFFFF" font-family="Noto Sans JP, sans-serif" font-size="22" font-weight="700">無料で試す</text>
  <defs>
    <linearGradient id="bg" x1="0" y1="0" x2="920" y2="1040" gradientUnits="userSpaceOnUse">
      <stop stop-color="#FFFDFC"/>
      <stop offset="0.52" stop-color="#FFF3F5"/>
      <stop offset="1" stop-color="#FFFDF9"/>
    </linearGradient>
  </defs>
</svg>

